<svg xmlns="http://www.w3.org/2000/svg" width="1458.9" height="467.5" viewBox="0 0 1468.9 467.5">
    <defs>
        <style>
            .cls-1{fill:#967655;}
            .cls-2{fill:#fff;}
            .cls-3{opacity:0;}
        </style>
        <filter xmlns="http://www.w3.org/2000/svg" id="dropshadow" height="130%">
            <feGaussianBlur in="SourceAlpha" stdDeviation="3"/>
            <feOffset dx="4" dy="4" result="offsetblur"/>
            <feComponentTransfer>
                <feFuncA type="linear" slope="0.4"/>
            </feComponentTransfer>
            <feMerge>
                <feMergeNode/>
                <feMergeNode in="SourceGraphic"/>
            </feMerge>
        </filter>
    </defs>
    <g id="Layer_1-2" filter="url(#dropshadow)">
        <path class="cls-1" d="M284,61.5l4.6-1.2a1.1,1.1,0,0,1,1.3.7l12.5,46.8a1,1,0,0,1-.8,1.2l-4.6,1.3a1,1,0,0,1-1.2-.8L283.3,62.8A1.1,1.1,0,0,1,284,61.5Z"/>
        <path class="cls-1" d="M331.3,101.5l-4.8,1.1a.7.7,0,0,1-.9-.5L314.2,55a.8.8,0,0,1,1.2-.8l35,28.1a.7.7,0,0,0,1.2-.7l-8.3-34.2a.8.8,0,0,1,.6-.9l4.8-1.2a.8.8,0,0,1,.9.6l11.5,47.6a.8.8,0,0,1-.6.9l-4.9,1.2a.8.8,0,0,1-.7-.2L326.2,71.7a.8.8,0,0,0-1.2.8l6.8,28.1A.7.7,0,0,1,331.3,101.5Z"/>
        <path class="cls-1" d="M372.9,39.9,399,34.5a1.4,1.4,0,0,1,1.8,1.1l.9,4a1.5,1.5,0,0,1-1.2,1.8l-8.3,1.8a1.4,1.4,0,0,0-1.2,1.7l8.2,39.5a1.3,1.3,0,0,1-1.1,1.7l-3.7.8a1.6,1.6,0,0,1-1.8-1.2l-8.2-39.4a1.5,1.5,0,0,0-1.8-1.2l-8.3,1.8a1.5,1.5,0,0,1-1.7-1.2l-.9-4A1.6,1.6,0,0,1,372.9,39.9Z"/>
        <path class="cls-1" d="M439.4,70.7l17.9-3.2a1.2,1.2,0,0,1,1.4,1l.9,4.6a1.3,1.3,0,0,1-1.1,1.5L434,79a1.2,1.2,0,0,1-1.4-1.1L424.2,31a1.3,1.3,0,0,1,1-1.5l24.1-4.3a1.3,1.3,0,0,1,1.5,1.1l.8,4.4a1.4,1.4,0,0,1-1,1.5l-17.5,3.1a1.3,1.3,0,0,0-1,1.5l1.2,6.6.7,4,.6,3.7a1.3,1.3,0,0,0,1.5,1l15.4-2.7a1.2,1.2,0,0,1,1.5,1l.8,4.3a1.2,1.2,0,0,1-1.1,1.4l-15.4,2.8a1.2,1.2,0,0,0-1,1.4l1.6,9.4A1.4,1.4,0,0,0,439.4,70.7Z"/>
        <path class="cls-1" d="M509.6,39a19.3,19.3,0,0,1-1.8,5.9,16.8,16.8,0,0,1-3.6,4.8l-.3.2c-.2.1-.2.2-.3.3l10.1,15.3a.6.6,0,0,1-.4.9l-5.8.9a.7.7,0,0,1-.6-.3l-9.1-13.7-1.5.4-1.6.3-7.6,1.1c-.4.1-.6.4-.5.7l1.9,13.6c.1.3-.1.6-.5.7l-5.5.8a.8.8,0,0,1-.7-.5l-7.1-48.9a.6.6,0,0,1,.5-.6l14.4-2.1a17.8,17.8,0,0,1,10.3,1.5,16.6,16.6,0,0,1,8.2,8.7,1.4,1.4,0,0,1,.2.6l.3.6v.3a1.9,1.9,0,0,1,.2.7l.3.8h0c0,.3.1.5.1.8s.1.6.2.9h0v.8a2.5,2.5,0,0,1,.1.8v2.1A6.2,6.2,0,0,0,509.6,39Zm-15,8.5a8.1,8.1,0,0,0,3.7-1.5,10.8,10.8,0,0,0,2.6-3,11.6,11.6,0,0,0,1.5-3.8,13,13,0,0,0,.1-4.4,11.9,11.9,0,0,0-1.4-4,12,12,0,0,0-2.5-3.3,11.5,11.5,0,0,0-3.3-2.1,9,9,0,0,0-4-.4l-8.4,1.3a.6.6,0,0,0-.5.6l3.1,21.3c.1.4.4.6.7.5Z"/>
        <path class="cls-1" d="M541.9,62.9l-4.7.5a.8.8,0,0,1-.9-.8L531,14.9a.8.8,0,0,1,1.4-.7L563.2,46a.8.8,0,0,0,1.4-.6l-3.8-34.6a.8.8,0,0,1,.8-.9l4.6-.6a1,1,0,0,1,1,.8l5.3,48.5a.7.7,0,0,1-.7.9l-4.9.6a.8.8,0,0,1-.7-.3L541,33a.8.8,0,0,0-1.5.6l3.1,28.3A.9.9,0,0,1,541.9,62.9Z"/>
        <path class="cls-1" d="M601.5,49.4l19.7-1.5c.3,0,.5.1.5.4l.5,6.3c0,.2-.2.5-.4.5l-26.5,2a.5.5,0,0,1-.5-.4L591,7.5c0-.2.2-.4.5-.5l26-2a.7.7,0,0,1,.5.4l.4,6.2c.1.3-.1.5-.4.5l-19.3,1.5a.5.5,0,0,0-.4.5l.6,7.4.3,4.1.3,4.6a.7.7,0,0,0,.5.4l17.3-1.3c.3-.1.5.1.5.4l.5,6a.5.5,0,0,1-.5.4l-17.2,1.4a.5.5,0,0,0-.5.4L601,49A.5.5,0,0,0,601.5,49.4Z"/>
        <path class="cls-1" d="M642.9,3.4l28.4-1.3c.4,0,.7.2.7.6l.3,5.8a.8.8,0,0,1-.7.7l-10.1.4a.6.6,0,0,0-.6.7l1.9,41.9a.7.7,0,0,1-.7.7l-5.4.3a.8.8,0,0,1-.7-.7l-1.9-41.9a.7.7,0,0,0-.7-.6l-10.1.5a.7.7,0,0,1-.7-.7l-.3-5.7A.7.7,0,0,1,642.9,3.4Z"/>
        <path class="cls-1" d="M763.9,23.2a18.2,18.2,0,0,1-2.7,5.6,15.3,15.3,0,0,1-4.3,4.1l-.3.2-.3.2L764,50.1c.1.4-.1.8-.5.8h-6a.5.5,0,0,1-.5-.3l-6.9-15-1.5.2h-9.5a.5.5,0,0,0-.5.5V50.1a.5.5,0,0,1-.5.5h-5.8a.5.5,0,0,1-.5-.5L732.1.5a.5.5,0,0,1,.5-.5h14.7a18.4,18.4,0,0,1,5.3.9,17.8,17.8,0,0,1,4.6,2.2,17,17,0,0,1,6.8,9.9,1.3,1.3,0,0,1,.1.6c.1.2.1.4.2.6v.4a1.9,1.9,0,0,1,.2.7,2.8,2.8,0,0,0,.1.9h0v1.8h0v1a2.2,2.2,0,0,1-.1.8h0a1.9,1.9,0,0,1-.1.8c0,.3-.1.6-.1.8v.3A9.3,9.3,0,0,0,763.9,23.2Zm-16.1,6.1a8.6,8.6,0,0,0,3.9-.9,11.8,11.8,0,0,0,3-2.5,16.2,16.2,0,0,0,2.1-3.6,12.6,12.6,0,0,0,.8-4.3,12.5,12.5,0,0,0-.8-4.2,10.5,10.5,0,0,0-2-3.6,10.2,10.2,0,0,0-2.9-2.6,8.7,8.7,0,0,0-3.9-1h-8.6a.6.6,0,0,0-.5.5l-.2,21.7a.5.5,0,0,0,.5.5Z"/>
        <path class="cls-1" d="M795.3,45.3l17.6.7a1.5,1.5,0,0,1,1.4,1.6v4.1a1.6,1.6,0,0,1-1.6,1.5l-24.4-1a1.5,1.5,0,0,1-1.4-1.6l1.9-47.1A1.6,1.6,0,0,1,790.3,2l23.9,1a1.6,1.6,0,0,1,1.5,1.6l-.2,4a1.5,1.5,0,0,1-1.6,1.5l-17.1-.7a1.4,1.4,0,0,0-1.6,1.5l-.3,6.4-.2,4.1v3.4a1.4,1.4,0,0,0,1.4,1.6l15.2.7a1.6,1.6,0,0,1,1.5,1.6l-.2,3.8a1.5,1.5,0,0,1-1.6,1.4l-15.1-.6a1.5,1.5,0,0,0-1.6,1.5l-.4,8.9A1.6,1.6,0,0,0,795.3,45.3Z"/>
        <path class="cls-1" d="M856.4,5.6A18.2,18.2,0,0,1,865,8.3a22.7,22.7,0,0,1,6.8,5.9,30.1,30.1,0,0,1,4.2,8.4,29.3,29.3,0,0,1,1,9.9,27.2,27.2,0,0,1-2.5,9.6,23.9,23.9,0,0,1-12.8,12.5,21.4,21.4,0,0,1-9.1,1.3l-14.4-1.1a1.8,1.8,0,0,1-1.7-1.9l3.6-46.8A1.8,1.8,0,0,1,842,4.5Zm-4.1,43.8a15,15,0,0,0,6.7-1,16,16,0,0,0,5.4-3.6,19,19,0,0,0,3.8-5.7,21.2,21.2,0,0,0,1.8-7.2,22.1,22.1,0,0,0-.7-7.3,18.6,18.6,0,0,0-2.9-6.2,15.9,15.9,0,0,0-4.9-4.4,13.8,13.8,0,0,0-6.3-2l-6.9-.5a1.7,1.7,0,0,0-1.9,1.6l-2.6,33.8a1.7,1.7,0,0,0,1.6,1.9Z"/>
        <path class="cls-1" d="M905.9,53.3l18.4,2.1a1,1,0,0,1,.9,1.2l-.5,5a1.2,1.2,0,0,1-1.2,1l-25.1-2.8a1.1,1.1,0,0,1-1-1.2l5.3-47.8a1.2,1.2,0,0,1,1.2-1l24.7,2.8a1,1,0,0,1,.9,1.2l-.5,4.9a1,1,0,0,1-1.2.9l-18-2a1.2,1.2,0,0,0-1.2,1l-.7,6.8-.5,4.1-.4,3.9a1,1,0,0,0,.9,1.2l16,1.8a1,1,0,0,1,.9,1.2l-.5,4.6a1.1,1.1,0,0,1-1.2,1l-15.9-1.8a1.1,1.1,0,0,0-1.2,1l-1.1,9.7A1.1,1.1,0,0,0,905.9,53.3Z"/>
        <path class="cls-1" d="M954.7,15.8l25.1,3.6a.8.8,0,0,1,.8,1l-.8,5.2a.9.9,0,0,1-.9.8l-18.4-2.6a.8.8,0,0,0-1,.7l-.9,6-.9,6.3-.4,3a.9.9,0,0,0,.8,1L973.5,43a.8.8,0,0,1,.7,1l-.7,5.1a.9.9,0,0,1-1,.7l-15.4-2.2a1,1,0,0,0-1,.8l-.9,6.2-1.6,11.1a.7.7,0,0,1-.9.7l-5-.7a.9.9,0,0,1-.8-.9l6.8-48.2A1,1,0,0,1,954.7,15.8Z"/>
        <path class="cls-1" d="M1004.7,22.9l4.3.7a1.2,1.2,0,0,1,1,1.4l-7.9,47.4a1.2,1.2,0,0,1-1.4,1l-4.3-.8a1.2,1.2,0,0,1-1-1.3l7.9-47.4A1.2,1.2,0,0,1,1004.7,22.9Z"/>
        <path class="cls-1" d="M1029.7,79l-3.9-.8a1.2,1.2,0,0,1-1-1.4l8.9-45.8a1.2,1.2,0,0,1,2.2-.4l19,37.8a1.2,1.2,0,0,0,2.3-.4l6.3-32.7a1.2,1.2,0,0,1,1.4-1l3.9.8a1.2,1.2,0,0,1,1,1.4l-9.1,47.2a1.2,1.2,0,0,1-1.4.9l-4.4-.8c-.3-.1-.7-.3-.8-.6l-15.6-32.1a1.2,1.2,0,0,0-2.3.3L1031.1,78A1.2,1.2,0,0,1,1029.7,79Z"/>
        <path class="cls-1" d="M1091.2,83.9l18.8,4.2a.9.9,0,0,1,.6.9l-1.3,5.6a.7.7,0,0,1-.9.5l-25.3-5.7a.8.8,0,0,1-.6-.9L1093.3,41c.1-.4.4-.7.8-.6L1119,46a.8.8,0,0,1,.6.9l-1.2,5.5a.9.9,0,0,1-.9.6l-18.4-4.2c-.3-.1-.7.2-.8.6l-1.6,7-.9,4-1,4.2a.8.8,0,0,0,.6.9l16.3,3.7a.6.6,0,0,1,.6.8l-1.2,5.3a.8.8,0,0,1-.9.6l-16.3-3.7a.7.7,0,0,0-.9.5L1090.7,83A.7.7,0,0,0,1091.2,83.9Z"/>
        <path class="cls-1" d="M1159.3,55.9a19.7,19.7,0,0,1,8,4.1,22.6,22.6,0,0,1,5.5,7.1,26.4,26.4,0,0,1,2.7,8.9,28.4,28.4,0,0,1-.7,10,26.6,26.6,0,0,1-4.2,9,24,24,0,0,1-6.5,6.6,23.1,23.1,0,0,1-8.3,3.4,20.5,20.5,0,0,1-9.2-.3l-15-3.9a.7.7,0,0,1-.5-.9l12.3-47.4a.7.7,0,0,1,.8-.5Zm-11.8,42.3a15.3,15.3,0,0,0,6.7.3,16.3,16.3,0,0,0,6-2.7,18.7,18.7,0,0,0,4.8-4.9,21.3,21.3,0,0,0,2.9-6.7,20.9,20.9,0,0,0,.7-7.4,17.9,17.9,0,0,0-1.8-6.6,16.8,16.8,0,0,0-4-5.2,15.2,15.2,0,0,0-5.9-3.1l-7.7-1.9a.7.7,0,0,0-.9.5l-9,34.9a.8.8,0,0,0,.5.9Z"/>
        <path class="cls-2" d="M619.7,433.8h11.6c.1,0,.2.1.2.3v3.3c0,.2-.1.3-.2.3H615.8a.3.3,0,0,1-.3-.3V410.9a.3.3,0,0,1,.3-.3H631a.3.3,0,0,1,.3.3v3.2a.3.3,0,0,1-.3.3H619.7a.3.3,0,0,0-.3.3v8.6a.3.3,0,0,0,.3.3h10.1a.3.3,0,0,1,.3.3v3.2c0,.1-.1.2-.3.2H619.7a.5.5,0,0,0-.3.3v5.9A.3.3,0,0,0,619.7,433.8Z"/>
        <path class="cls-2" d="M657,424.2h0l.5.4.4.5a9.5,9.5,0,0,1,1.4,2.4,7.7,7.7,0,0,1,.4,2.7v.5h0a6.9,6.9,0,0,1-1.3,3.7,6.3,6.3,0,0,1-2.6,2.5,7.5,7.5,0,0,1-3.7.9h-2.4a7.1,7.1,0,0,1-6.3-3.4,5.6,5.6,0,0,1-.5-.8c-.1-.1,0-.3.1-.4l3-2.3a.2.2,0,0,1,.3.1,3,3,0,0,0,.4,1,3.1,3.1,0,0,0,.9,1.1,2.4,2.4,0,0,0,1.2.7,3.2,3.2,0,0,0,1.4.3h1.5a3.7,3.7,0,0,0,2.6-1,3.8,3.8,0,0,0,1.3-2.4h0v-.3a.3.3,0,0,0,.1-.2,4.1,4.1,0,0,0-.3-1.6,3.8,3.8,0,0,0-.9-1.3l-1.2-.9a3.3,3.3,0,0,0-1.5-.3h-2.2a7.6,7.6,0,0,1-2.6-.6,7.1,7.1,0,0,1-2.2-1.3h0l-.9-.9a9.2,9.2,0,0,1-1.3-2.4,7.6,7.6,0,0,1-.5-2.7v-.5h0a7.8,7.8,0,0,1,1.3-3.7,7.2,7.2,0,0,1,2.7-2.5,7.4,7.4,0,0,1,3.6-.9h2.4a7.5,7.5,0,0,1,3.7.9,7.2,7.2,0,0,1,2.7,2.5l.2.4.3.4h0l-2.9,2.2a.4.4,0,0,1-.7-.2,6.1,6.1,0,0,0-1.2-1.6,3.8,3.8,0,0,0-2.5-.9h-1.5a3.2,3.2,0,0,0-1.4.3,2.4,2.4,0,0,0-1.2.7,3.1,3.1,0,0,0-.9,1.1,6.9,6.9,0,0,0-.5,1.3v.6a3.3,3.3,0,0,0,.3,1.5,5.7,5.7,0,0,0,.8,1.3l1.2.9a4,4,0,0,0,1.5.3h2.3a5.8,5.8,0,0,1,2.6.6A5.7,5.7,0,0,1,657,424.2Z"/>
        <path class="cls-2" d="M671,410.6h16.1a.6.6,0,0,1,.6.6v2.5a.7.7,0,0,1-.6.7h-5.5a.6.6,0,0,0-.6.6v22.1a.7.7,0,0,1-.7.6h-2.6a.7.7,0,0,1-.7-.6V415a.6.6,0,0,0-.6-.6H671a.7.7,0,0,1-.7-.7v-2.5C670.3,410.8,670.6,410.6,671,410.6Z"/>
        <path class="cls-2" d="M700.2,433.8a1.7,1.7,0,0,1,1.4.6,1.9,1.9,0,0,1,0,2.8,1.7,1.7,0,0,1-1.4.6,1.6,1.6,0,0,1-1.3-.6,1.9,1.9,0,0,1,0-2.8A1.6,1.6,0,0,1,700.2,433.8Z"/>
        <path class="cls-2" d="M753.5,418.5a7,7,0,0,1-.6,3,9.7,9.7,0,0,1-1.5,2.5l-7.7,9.8a.5.5,0,0,0,.3.7h8.9a.4.4,0,0,1,.4.4v2.4a.5.5,0,0,1-.4.5h-16a.4.4,0,0,1-.3-.7l8-10.6,2.1-2.7a8.6,8.6,0,0,1,.7-1l.7-1,.5-.7.3-.3a4.6,4.6,0,0,0,.6-2.3,4.8,4.8,0,0,0-4.7-4.7,4.1,4.1,0,0,0-1.9.4,4.5,4.5,0,0,0-1.4,1,3.1,3.1,0,0,0-1,1.5,3.3,3.3,0,0,0-.4,1.4.4.4,0,0,1-.4.4h-3a.5.5,0,0,1-.4-.5,5.8,5.8,0,0,1,.6-2.6,9.7,9.7,0,0,1,1.9-2.6,9.5,9.5,0,0,1,2.7-1.7,9.7,9.7,0,0,1,3.4-.6,8.8,8.8,0,0,1,3.3.6,8.3,8.3,0,0,1,2.7,1.7,9.7,9.7,0,0,1,1.9,2.6A6.7,6.7,0,0,1,753.5,418.5Z"/>
        <path class="cls-2" d="M784.6,424.2a26.1,26.1,0,0,1-.5,4.8,15.7,15.7,0,0,1-1.8,4.4,9.8,9.8,0,0,1-3.2,3.2,10.2,10.2,0,0,1-9.6,0,9.8,9.8,0,0,1-3.2-3.2,15.5,15.5,0,0,1-1.7-4.4,23.3,23.3,0,0,1,0-9.6,15.5,15.5,0,0,1,1.7-4.4,9.8,9.8,0,0,1,3.2-3.2,10.2,10.2,0,0,1,9.6,0,9.8,9.8,0,0,1,3.2,3.2,15.7,15.7,0,0,1,1.8,4.4A26.1,26.1,0,0,1,784.6,424.2Zm-3.9,0a16.1,16.1,0,0,0-.4-3.9,9.9,9.9,0,0,0-1-3.3,6.2,6.2,0,0,0-1.9-2.3,5.3,5.3,0,0,0-3.1-.8,4.8,4.8,0,0,0-3,.8,5.6,5.6,0,0,0-2,2.3,9.9,9.9,0,0,0-1,3.3,25.5,25.5,0,0,0,0,7.8,10.6,10.6,0,0,0,1,3.3,5.3,5.3,0,0,0,5,3.1,5,5,0,0,0,5-3.1,10.6,10.6,0,0,0,1-3.3A16.1,16.1,0,0,0,780.7,424.2Z"/>
        <path class="cls-2" d="M815.7,424.2a26.1,26.1,0,0,1-.5,4.8,15.7,15.7,0,0,1-1.8,4.4,9.8,9.8,0,0,1-3.2,3.2,10.2,10.2,0,0,1-9.6,0,9.5,9.5,0,0,1-3.1-3.2,13.2,13.2,0,0,1-1.8-4.4,23.3,23.3,0,0,1,0-9.6,13.2,13.2,0,0,1,1.8-4.4,9.5,9.5,0,0,1,3.1-3.2,10.2,10.2,0,0,1,9.6,0,9.8,9.8,0,0,1,3.2,3.2,15.7,15.7,0,0,1,1.8,4.4A26.1,26.1,0,0,1,815.7,424.2Zm-3.9,0a16.1,16.1,0,0,0-.4-3.9,9.9,9.9,0,0,0-1-3.3,6.2,6.2,0,0,0-1.9-2.3,5.3,5.3,0,0,0-3.1-.8,4.8,4.8,0,0,0-3,.8,6.4,6.4,0,0,0-2,2.3,9.9,9.9,0,0,0-1,3.3,25.5,25.5,0,0,0,0,7.8,10.6,10.6,0,0,0,1,3.3,6.4,6.4,0,0,0,2,2.3,5.6,5.6,0,0,0,3,.8,5,5,0,0,0,5-3.1,10.6,10.6,0,0,0,1-3.3A16.1,16.1,0,0,0,811.8,424.2Z"/>
        <path class="cls-2" d="M826.3,430a6.9,6.9,0,0,1,1-3.7,10.3,10.3,0,0,1,2.7-2.8,6.8,6.8,0,0,1-2-2.4,7.3,7.3,0,0,1-.8-3.3,6.7,6.7,0,0,1,.6-2.8,6.3,6.3,0,0,1,1.6-2.3,7.8,7.8,0,0,1,2.4-1.6,8.7,8.7,0,0,1,5.8,0,6.7,6.7,0,0,1,2.4,1.6,6.3,6.3,0,0,1,1.6,2.3,6.7,6.7,0,0,1,.6,2.8,7.3,7.3,0,0,1-.8,3.3,6.1,6.1,0,0,1-2.1,2.4,9.3,9.3,0,0,1,2.8,2.8,7.9,7.9,0,0,1,1,3.7,6,6,0,0,1-.7,3,6.4,6.4,0,0,1-1.8,2.5,7.6,7.6,0,0,1-2.6,1.6,9.6,9.6,0,0,1-3.3.6,8.8,8.8,0,0,1-3.3-.6,9.2,9.2,0,0,1-2.7-1.6,9.4,9.4,0,0,1-1.8-2.5A7.3,7.3,0,0,1,826.3,430Zm3.9-.2a4.8,4.8,0,0,0,.3,1.8,7.1,7.1,0,0,0,1,1.4,4.2,4.2,0,0,0,1.4.9,5.5,5.5,0,0,0,3.6,0,3.9,3.9,0,0,0,2.3-2.3,3.4,3.4,0,0,0,.4-1.8,3.3,3.3,0,0,0-.4-1.7,4.2,4.2,0,0,0-.9-1.4,7.1,7.1,0,0,0-1.4-1l-1.8-.3a5.7,5.7,0,0,0-1.8.3,5.2,5.2,0,0,0-2.4,2.4A4.7,4.7,0,0,0,830.2,429.8Zm.7-11.9a3.6,3.6,0,0,0,1.1,2.8,3.9,3.9,0,0,0,5.4,0,3.6,3.6,0,0,0,1.1-2.8,3.4,3.4,0,0,0-1.1-2.8,3.9,3.9,0,0,0-5.4,0A3.4,3.4,0,0,0,830.9,417.9Z"/>
        <path class="cls-1" d="M580.5,430.2v.8H372.7a3.8,3.8,0,0,1-3.9-3.9h0a3.8,3.8,0,0,1,3.9-3.8H580.1C580.3,425.5,580.5,427.9,580.5,430.2Z"/>
        <path class="cls-1" d="M577.7,411.9H314a3.9,3.9,0,0,1-3.9-3.8h0a3.9,3.9,0,0,1,3.9-3.9H574a38.2,38.2,0,0,1,3.6,7.6Z"/>
        <path class="cls-1" d="M878.4,430.2v.8h207.9a3.8,3.8,0,0,0,3.8-3.9h0a3.8,3.8,0,0,0-3.8-3.8H878.9A52.1,52.1,0,0,0,878.4,430.2Z"/>
        <path class="cls-1" d="M579.1,442.3a46.4,46.4,0,0,1-2.6,7.7H439.8a3.9,3.9,0,0,1-3.8-3.9h0a3.8,3.8,0,0,1,3.8-3.8Z"/>
        <path class="cls-1" d="M879.9,442.3a46.3,46.3,0,0,0,2.5,7.7h136.7a4,4,0,0,0,3.9-3.9h0a3.9,3.9,0,0,0-3.9-3.8Z"/>
        <path class="cls-1" d="M881.3,411.9h263.6a3.8,3.8,0,0,0,3.9-3.8h0a3.8,3.8,0,0,0-3.9-3.9h-260a38.2,38.2,0,0,0-3.6,7.6Z"/>
        <rect class="cls-1" x="570" y="385.5" width="318.1" height="3.85"/>
        <polygon class="cls-1" points="889.2 462.6 569.7 462.6 581.9 458.8 875 458.8 889.2 462.6"/>
        <path class="cls-1" d="M591.9,424.1c0,21.3-9.9,38.5-22.2,38.5h0s-.1-.1,0-.1c8.5-3.7,14.8-17.1,14.8-33a54.3,54.3,0,0,0-2.8-17.7,37.9,37.9,0,0,0-4.6-9c-3.4-4.6-7.6-7.3-12.2-7.3s-8.6,2.2-11.8,6.5h0a1,1,0,0,1-.9-1.4c3.9-9.4,10.2-15,17.5-15C582,385.6,591.9,402.9,591.9,424.1Z"/>
        <g class="cls-3">
            <path class="cls-1" d="M569.7,467.5a4.9,4.9,0,0,1-4.8-3.9,5,5,0,0,1,2.9-5.6h0c3-1.3,5.9-4.7,8.1-9.4a48.2,48.2,0,0,0,3.8-19.1,49,49,0,0,0-2.6-16.1,31.7,31.7,0,0,0-4-7.8c-1.7-2.4-4.6-5.3-8.2-5.3s-5.6,1.5-7.9,4.6l-1.4,2h-2.5a5.9,5.9,0,0,1-4.9-2.6,5.7,5.7,0,0,1-.5-5.5,33.8,33.8,0,0,1,8.8-12.9,20.4,20.4,0,0,1,13.2-5.1,18.5,18.5,0,0,1,11.5,4,31,31,0,0,1,8.4,9.7c4.6,8,7.1,18.5,7.1,29.6s-2.5,21.7-7.1,29.7a31,31,0,0,1-8.4,9.7A18.5,18.5,0,0,1,569.7,467.5Zm-2.4-76.7c5.1.8,9.9,3.9,13.7,9.1a39.6,39.6,0,0,1,2.2,3.4c-.6-1.4-1.3-2.7-2-4-3.2-5.6-7.4-8.8-11.5-8.8A9.9,9.9,0,0,0,567.3,390.8Z"/>
        </g>
        <path class="cls-1" d="M867,424.1c0,21.3,10,38.5,22.2,38.5h0c.1,0,.1-.1,0-.1-8.5-3.7-14.8-17.1-14.8-33a54.3,54.3,0,0,1,2.9-17.7,34.5,34.5,0,0,1,4.6-9c3.3-4.6,7.5-7.3,12.1-7.3s8.6,2.2,11.8,6.5h0a1.1,1.1,0,0,0,1-1.4c-4-9.4-10.2-15-17.6-15C877,385.6,867,402.9,867,424.1Z"/>
        <g class="cls-3">
            <path class="cls-1" d="M889.2,467.5a18.7,18.7,0,0,1-11.5-4,31,31,0,0,1-8.4-9.7c-4.6-8-7.1-18.5-7.1-29.7s2.5-21.6,7.1-29.6a31,31,0,0,1,8.4-9.7,18.7,18.7,0,0,1,11.5-4,20.2,20.2,0,0,1,13.2,5.1,32.8,32.8,0,0,1,8.8,12.9,5.7,5.7,0,0,1-.5,5.5,5.9,5.9,0,0,1-4.9,2.6h-2.4l-1.5-2c-2.2-3.1-4.8-4.6-7.9-4.6s-6.4,2.9-8.2,5.3a28.5,28.5,0,0,0-3.9,7.8,49,49,0,0,0-2.6,16.1,46.5,46.5,0,0,0,3.8,19.1c2.1,4.7,5,8.1,8.1,9.4h0a5,5,0,0,1,2.8,5.6A4.8,4.8,0,0,1,889.2,467.5Zm0-77c-4.1,0-8.2,3.2-11.5,8.8-.7,1.3-1.3,2.6-1.9,4a39.6,39.6,0,0,1,2.2-3.4c3.7-5.2,8.5-8.3,13.6-9.1A9.9,9.9,0,0,0,889.2,390.5Z"/>
        </g>
        <path class="cls-2" d="M0,290.2l40.8-100,40.7,100H66.7l-3-8H18l-3.1,8Zm22.9-20.8H58.6L40.8,223.6Z"/>
        <path class="cls-2" d="M104.4,190.4h63.8v14H143.6v85.8H129.1V204.4H104.4Z"/>
        <path class="cls-2" d="M226.6,276.1h40.8v14.3H212v-100h14.6Z"/>
        <path class="cls-2" d="M295.7,290.2l40.8-100,40.7,100H362.4l-3-8H313.7l-3.1,8Zm22.9-20.8h35.7l-17.8-45.8Z"/>
        <path class="cls-2" d="M467.2,240.5a9.3,9.3,0,0,1,1.8,1.6l1.5,1.7a31,31,0,0,1,4.9,8.7,27,27,0,0,1,1.8,9.8,9.5,9.5,0,0,1-.2,2,25.8,25.8,0,0,1-4.6,13.7,27.1,27.1,0,0,1-23.2,12.4h-9a27,27,0,0,1-13.3-3.3,27.6,27.6,0,0,1-9.8-9.1,22.4,22.4,0,0,1-2.2-3.8l12.7-9.8a12,12,0,0,0,1.7,4.8,15.2,15.2,0,0,0,3.2,4,14.7,14.7,0,0,0,9.5,3.6h5.5A14.7,14.7,0,0,0,462,264.3c0-.4.1-.8.1-1.1a4.5,4.5,0,0,0,.1-1.1,14.7,14.7,0,0,0-1.1-5.6,14.1,14.1,0,0,0-3-4.6,16,16,0,0,0-4.5-3.2,14.9,14.9,0,0,0-5.5-1.4h-8.3a25.6,25.6,0,0,1-9.5-1.9,29.4,29.4,0,0,1-7.9-5,12.9,12.9,0,0,1-3.3-3.3,31.9,31.9,0,0,1-4.9-8.6,28,28,0,0,1-1.8-9.9v-1.9a29.2,29.2,0,0,1,4.8-13.8,28.5,28.5,0,0,1,9.8-9.1,27.4,27.4,0,0,1,13.4-3.3h8.8a28.1,28.1,0,0,1,13.5,3.3,28.5,28.5,0,0,1,9.8,9.1l.9,1.5.9,1.5-12.4,9.7a14.7,14.7,0,0,0-5.2-8.2,13.8,13.8,0,0,0-9.1-3.3h-5.5a13.4,13.4,0,0,0-5.2,1,12.8,12.8,0,0,0-4.4,2.6,14.2,14.2,0,0,0-3.2,4.1,11.9,11.9,0,0,0-1.7,4.9,3.6,3.6,0,0,0-.2,1.1v1.1a14.2,14.2,0,0,0,1.1,5.5,13.1,13.1,0,0,0,3,4.6,16,16,0,0,0,4.5,3.2,14.4,14.4,0,0,0,5.5,1.4h8.3a24.7,24.7,0,0,1,9.4,2A26.1,26.1,0,0,1,467.2,240.5Z"/>
        <path class="cls-2" d="M607.9,290.6H594.2V188.7L658.8,266V190.5h13.7V290.6H659.2l-51.3-63.2Z"/>
        <path class="cls-2" d="M735.8,275.7h44.5V290H721.4V190.5h57.9v14H735.8v33.8h39.1V252H735.8Z"/>
        <path class="cls-2" d="M818.8,190.4h63.8v14H858v85.8H843.5V204.4H818.8Z"/>
        <path class="cls-2" d="M1017.6,190.2h15.1L992.1,290.6l-20.2-50.2-20.3,50.2L911,190.2h15.1l25.5,62.7,12.7-31.2-12.7-31.5h15l5.3,12.8,7.5,18.7,12.7,31.2Z"/>
        <path class="cls-2" d="M1102.7,189.9a49.3,49.3,0,0,1,19.5,4,48.7,48.7,0,0,1,15.9,10.8,50.7,50.7,0,0,1,14.5,35.7,49.2,49.2,0,0,1-3.9,19.5,49.8,49.8,0,0,1-10.6,15.9,48.7,48.7,0,0,1-15.9,10.8,49.3,49.3,0,0,1-19.5,4,49.9,49.9,0,0,1-35.3-14.8,49.8,49.8,0,0,1-10.6-15.9,49.2,49.2,0,0,1-3.9-19.5,50.7,50.7,0,0,1,14.5-35.7,49.9,49.9,0,0,1,35.3-14.8Zm0,86.6a32.2,32.2,0,0,0,13.4-2.8,36,36,0,0,0,11.1-7.8,37.5,37.5,0,0,0,0-51.2,34.7,34.7,0,0,0-11.1-7.9,33.5,33.5,0,0,0-26.8,0,32.8,32.8,0,0,0-10.9,7.9,35.1,35.1,0,0,0-7.5,11.6,38.2,38.2,0,0,0,0,28.2,35.3,35.3,0,0,0,7.5,11.4,34,34,0,0,0,10.9,7.8A32.2,32.2,0,0,0,1102.7,276.5Z"/>
        <path class="cls-2" d="M1255.1,235.6a36.3,36.3,0,0,1-5.6,11.1,36.7,36.7,0,0,1-9.2,8.3l-.7.4-.7.4,17.6,34.6h-15.4l-15.4-30.1-3.3.4H1201v29.6h-14.6V190.2h32.4a39.7,39.7,0,0,1,11.6,1.6,40.1,40.1,0,0,1,9.9,4.3,33.8,33.8,0,0,1,14.8,19.5l.3,1.2a5.6,5.6,0,0,0,.4,1.2v.7a4,4,0,0,1,.3,1.5c.1.6.1,1.1.2,1.7h0a8.8,8.8,0,0,1,.2,1.6v1.8h0v1.9a9.9,9.9,0,0,1-.2,1.7v.3c-.1.5-.1,1-.2,1.5a5,5,0,0,1-.3,1.6v.5A11.3,11.3,0,0,0,1255.1,235.6ZM1220.6,248a17.8,17.8,0,0,0,8.3-1.9,20.9,20.9,0,0,0,6.4-5,24,24,0,0,0,4.4-7.2,22,22,0,0,0,1.6-8.4,22.4,22.4,0,0,0-1.6-8.4,24,24,0,0,0-4.4-7.2,20.6,20.6,0,0,0-6.4-4.9,17.8,17.8,0,0,0-8.3-2h-19.5v45Z"/>
        <path class="cls-2" d="M1327.6,228.7l31.4,61.5h-15.4l-25.1-49.3-12.4,16.7v32.6h-14.5V190.4h14.5v45.2l33.3-45.2H1356Z"/>
        <path class="cls-2" d="M1449,240.5l1.8,1.6,1.5,1.7a33.7,33.7,0,0,1,4.9,8.7,29.3,29.3,0,0,1,1.7,9.8,10.9,10.9,0,0,1-.1,2,26.7,26.7,0,0,1-4.6,13.7,28.8,28.8,0,0,1-9.9,9.1,27,27,0,0,1-13.3,3.3h-9a27.4,27.4,0,0,1-13.4-3.3,28.5,28.5,0,0,1-9.8-9.1c-.7-1.1-1.4-2.3-2.2-3.8l12.7-9.8a13.8,13.8,0,0,0,1.7,4.8,17.6,17.6,0,0,0,3.2,4,13.9,13.9,0,0,0,4.4,2.6,12.7,12.7,0,0,0,5.2,1h5.4a14.2,14.2,0,0,0,9.7-3.6,14.5,14.5,0,0,0,4.9-8.9,3.7,3.7,0,0,1,.1-1.1v-1.1a13,13,0,0,0-1.1-5.6,14.1,14.1,0,0,0-3-4.6,13.6,13.6,0,0,0-4.5-3.2,14.4,14.4,0,0,0-5.4-1.4h-8.3a25.2,25.2,0,0,1-9.5-1.9,30,30,0,0,1-8-5,14.4,14.4,0,0,1-3.2-3.3,32.2,32.2,0,0,1-5-8.6,30.3,30.3,0,0,1-1.7-9.9v-1.9a28.1,28.1,0,0,1,4.7-13.8,29.8,29.8,0,0,1,9.9-9.1,27,27,0,0,1,13.3-3.3h8.9a27.4,27.4,0,0,1,13.4,3.3,28,28,0,0,1,9.9,9.1l.9,1.5.9,1.5-12.4,9.7a15.9,15.9,0,0,0-5.2-8.2,14,14,0,0,0-9.2-3.3h-5.4a13.9,13.9,0,0,0-5.3,1,15,15,0,0,0-4.4,2.6,16.2,16.2,0,0,0-3.2,4.1,13.6,13.6,0,0,0-1.7,4.9,3.7,3.7,0,0,0-.1,1.1v1.1a12.6,12.6,0,0,0,1.1,5.5,13.1,13.1,0,0,0,3,4.6,13.6,13.6,0,0,0,4.5,3.2,14.4,14.4,0,0,0,5.4,1.4h8.3a24.8,24.8,0,0,1,9.5,2A27.3,27.3,0,0,1,1449,240.5Z"/>
    </g>
</svg>