<svg id="svg" version="1.1" xmlns="http://www.w3.org/2000/svg" xmlns:xlink="http://www.w3.org/1999/xlink" width="400" height="120.16559668806623" viewBox="0, 0, 400,120.16559668806623"><g id="svgg"><path id="path0" d="M88.186 16.968 C 88.073 18.590,87.760 23.029,87.492 26.833 C 87.223 30.637,86.853 35.906,86.668 38.542 C 86.484 41.177,86.182 45.490,85.996 48.125 C 85.396 56.642,84.861 64.293,84.479 69.792 C 84.274 72.748,84.063 75.166,84.011 75.166 C 83.885 75.165,80.796 69.064,69.496 46.497 C 59.272 26.080,59.515 26.512,57.795 25.707 C 55.385 24.580,53.092 25.382,50.295 28.329 C 37.083 42.253,33.346 58.776,39.606 75.583 C 42.873 84.356,47.785 91.758,52.861 95.560 L 53.472 96.018 53.568 94.967 C 53.681 93.722,53.914 90.459,54.248 85.417 C 54.382 83.400,54.568 80.625,54.662 79.250 C 54.756 77.875,55.057 73.412,55.333 69.333 C 55.892 61.043,55.907 60.902,56.280 60.693 C 56.874 60.361,57.309 60.878,62.125 67.648 C 64.839 71.462,69.459 77.958,72.393 82.083 C 75.327 86.208,78.535 90.716,79.522 92.101 C 82.100 95.715,82.773 96.241,84.833 96.247 C 86.879 96.252,87.315 95.901,91.250 91.083 C 97.288 83.692,102.222 73.910,103.735 66.333 C 106.580 52.081,103.415 33.870,96.159 22.750 C 94.145 19.662,90.618 15.604,88.862 14.354 L 88.393 14.020 88.186 16.968 " stroke="none" fill="#fcfbfb" fill-rule="evenodd"></path><path id="path1" d="M103.583 9.171 C 102.025 9.249,98.650 9.396,96.083 9.498 C 93.517 9.600,90.742 9.752,89.917 9.835 C 89.092 9.919,87.217 10.066,85.750 10.163 C 84.283 10.259,82.483 10.412,81.750 10.504 C 81.017 10.595,79.292 10.783,77.917 10.921 C 75.185 11.195,71.197 11.687,68.583 12.073 C 64.764 12.637,59.848 13.443,58.833 13.672 C 58.421 13.765,56.808 14.100,55.250 14.417 C 50.207 15.443,50.329 15.414,45.083 16.802 C 39.861 18.184,32.497 20.625,29.417 21.995 C 29.233 22.076,28.258 22.501,27.250 22.939 C 23.443 24.592,19.182 26.825,15.811 28.933 C 15.081 29.390,15.023 29.482,14.765 30.583 C 14.359 32.317,13.741 35.073,13.419 36.583 C 13.263 37.317,13.034 38.367,12.911 38.917 C 12.077 42.641,11.729 45.108,11.002 52.417 C 10.516 57.303,10.028 66.778,10.015 71.583 C 10.005 75.119,10.132 77.002,10.660 81.167 C 11.457 87.444,11.456 87.440,12.247 90.917 C 12.372 91.467,12.590 92.442,12.732 93.083 C 13.193 95.164,13.994 98.568,14.164 99.167 C 14.255 99.487,14.446 100.200,14.589 100.750 C 15.113 102.771,15.363 103.621,15.934 105.333 C 16.255 106.296,16.626 107.320,16.759 107.609 C 16.892 107.897,17.000 108.183,17.000 108.243 C 17.000 108.344,17.356 109.171,17.953 110.458 L 18.205 111.000 25.644 110.995 C 34.336 110.990,43.542 110.663,49.083 110.164 C 50.183 110.065,52.396 109.875,54.000 109.740 C 60.259 109.217,67.423 108.307,73.500 107.263 C 77.847 106.517,79.950 106.091,85.833 104.766 C 87.239 104.449,92.960 102.906,94.250 102.496 C 94.800 102.321,95.962 101.956,96.833 101.685 C 109.274 97.817,120.507 91.753,127.684 85.032 C 128.861 83.930,128.966 83.777,129.146 82.881 C 129.616 80.547,130.407 73.178,130.744 68.000 C 130.884 65.846,131.072 63.071,131.162 61.833 C 131.832 52.584,131.124 40.957,129.060 27.333 C 128.303 22.337,128.180 21.589,128.020 21.000 C 127.933 20.679,127.812 20.079,127.751 19.667 C 127.691 19.254,127.537 18.504,127.410 18.000 C 127.282 17.496,127.019 16.408,126.825 15.583 C 126.369 13.648,125.032 9.654,124.736 9.343 C 124.462 9.055,108.474 8.925,103.583 9.171 M91.072 16.263 C 98.536 23.676,103.297 35.118,104.583 48.735 C 106.104 64.836,102.024 77.849,91.255 91.245 C 87.695 95.673,86.790 96.401,84.833 96.408 C 82.433 96.417,82.388 96.368,74.913 85.833 C 55.896 59.029,57.089 60.667,56.571 60.667 C 56.108 60.667,55.975 61.457,55.665 66.047 C 55.324 71.097,55.019 75.580,54.496 83.250 C 54.314 85.908,54.044 89.883,53.895 92.083 C 53.577 96.782,53.734 96.386,52.550 95.482 C 46.094 90.553,39.798 79.287,37.326 68.242 C 34.748 56.724,38.242 42.956,46.332 32.750 C 51.077 26.765,52.976 25.253,55.750 25.253 C 59.197 25.252,58.063 23.439,72.083 51.379 L 83.917 74.962 84.033 74.022 C 84.098 73.506,84.305 70.833,84.493 68.083 C 84.682 65.333,84.911 62.033,85.002 60.750 C 85.093 59.467,85.430 54.667,85.750 50.083 C 86.070 45.500,86.445 40.175,86.583 38.250 C 86.883 34.049,87.570 24.188,87.924 19.000 C 88.064 16.938,88.219 14.929,88.267 14.536 L 88.355 13.823 88.998 14.332 C 89.351 14.612,90.285 15.481,91.072 16.263 M142.667 61.497 L 142.667 77.833 145.926 77.833 L 149.185 77.833 149.134 65.678 L 149.083 53.522 150.142 55.636 C 151.850 59.048,160.027 74.210,161.629 76.937 L 162.107 77.750 166.262 77.750 L 170.417 77.750 170.417 61.500 L 170.417 45.250 167.500 45.203 C 165.896 45.176,164.415 45.197,164.208 45.247 L 163.833 45.340 163.839 54.045 C 163.841 58.833,163.914 63.946,163.999 65.409 C 164.085 66.871,164.135 68.088,164.109 68.113 C 164.084 68.138,163.591 67.242,163.013 66.121 C 161.799 63.767,159.294 59.143,157.665 56.250 C 154.663 50.917,152.556 47.157,152.064 46.250 L 151.521 45.250 147.094 45.206 L 142.667 45.161 142.667 61.497 M175.541 61.457 L 175.583 77.750 187.000 77.790 C 193.279 77.812,198.503 77.774,198.608 77.706 C 198.714 77.639,198.923 76.683,199.073 75.583 C 199.223 74.483,199.410 73.208,199.488 72.750 C 199.566 72.292,199.596 71.860,199.555 71.792 C 199.514 71.723,195.697 71.667,191.073 71.667 L 182.667 71.667 182.667 67.750 L 182.667 63.833 190.333 63.833 L 198.000 63.833 198.000 60.833 L 198.000 57.833 190.333 57.833 L 182.667 57.833 182.667 54.585 L 182.667 51.337 190.625 51.293 L 198.583 51.250 198.583 48.250 L 198.583 45.250 187.041 45.207 L 175.498 45.164 175.541 61.457 M203.743 45.375 C 203.700 45.490,203.683 52.821,203.707 61.667 L 203.750 77.750 207.057 77.795 L 210.364 77.840 210.269 65.462 C 210.216 58.654,210.139 52.633,210.096 52.083 L 210.019 51.083 210.258 52.083 C 210.390 52.633,210.572 53.346,210.662 53.667 C 210.753 53.987,211.084 55.300,211.397 56.583 C 211.710 57.867,212.206 59.817,212.498 60.917 C 212.790 62.017,213.214 63.629,213.440 64.500 C 213.667 65.371,213.991 66.608,214.161 67.250 C 214.331 67.892,214.618 68.979,214.800 69.667 C 214.981 70.354,215.295 71.517,215.496 72.250 C 216.095 74.431,216.338 75.353,216.641 76.583 L 216.929 77.750 220.037 77.795 L 223.146 77.841 223.745 75.879 C 224.074 74.800,224.485 73.467,224.656 72.917 C 224.828 72.367,225.133 71.354,225.333 70.667 C 225.533 69.979,225.797 69.117,225.921 68.750 C 226.045 68.383,226.306 67.521,226.502 66.833 C 226.698 66.146,227.037 64.983,227.254 64.250 C 227.472 63.517,228.067 61.417,228.576 59.583 C 229.085 57.750,229.574 56.025,229.662 55.750 C 229.749 55.475,229.941 54.762,230.088 54.167 C 230.235 53.571,230.448 52.708,230.561 52.250 C 230.729 51.569,230.765 53.825,230.758 64.583 L 230.750 77.750 234.208 77.795 L 237.667 77.840 237.667 61.501 L 237.667 45.162 232.559 45.206 L 227.452 45.250 227.044 46.583 C 226.820 47.317,226.573 48.067,226.495 48.250 C 226.418 48.433,226.115 49.371,225.823 50.333 C 225.530 51.296,225.082 52.721,224.826 53.500 C 224.571 54.279,224.161 55.592,223.915 56.417 C 223.670 57.242,223.406 58.104,223.328 58.333 C 223.251 58.563,222.993 59.425,222.756 60.250 C 222.518 61.075,222.184 62.200,222.014 62.750 C 221.843 63.300,221.453 64.753,221.146 65.979 L 220.589 68.208 220.316 67.229 C 220.165 66.691,219.875 65.537,219.670 64.667 C 219.271 62.968,216.792 53.576,216.415 52.333 C 216.142 51.431,215.679 49.807,215.084 47.667 C 214.842 46.796,214.565 45.877,214.468 45.625 L 214.293 45.167 209.058 45.167 C 205.023 45.167,203.805 45.214,203.743 45.375 M243.077 45.375 C 243.033 45.490,243.017 52.821,243.040 61.667 L 243.083 77.750 254.574 77.793 C 260.894 77.816,266.127 77.773,266.203 77.697 C 266.321 77.579,267.008 73.102,267.065 72.083 C 267.083 71.755,266.965 71.749,258.625 71.707 L 250.167 71.664 250.167 67.748 L 250.167 63.833 257.833 63.833 L 265.500 63.833 265.500 60.833 L 265.500 57.833 257.833 57.833 L 250.167 57.833 250.167 54.585 L 250.167 51.337 258.125 51.293 L 266.083 51.250 266.129 48.208 L 266.174 45.167 254.665 45.167 C 245.611 45.167,243.139 45.211,243.077 45.375 M271.249 45.361 C 271.202 45.483,271.183 52.821,271.207 61.667 L 271.250 77.750 274.792 77.795 L 278.333 77.840 278.333 71.337 L 278.333 64.833 280.792 64.835 C 288.039 64.838,288.552 65.295,288.737 71.917 C 288.840 75.596,289.090 77.409,289.533 77.690 C 289.816 77.870,296.121 77.876,296.231 77.697 C 296.278 77.621,296.210 76.965,296.080 76.238 C 295.931 75.397,295.843 73.688,295.839 71.535 C 295.832 67.657,295.611 66.167,294.795 64.529 C 294.317 63.568,292.883 62.000,292.482 62.000 C 292.123 62.000,292.385 61.647,292.962 61.352 C 295.043 60.291,296.506 57.329,296.496 54.200 C 296.482 49.927,293.992 46.944,289.343 45.633 C 287.745 45.182,271.411 44.936,271.249 45.361 M309.767 45.875 C 309.467 46.693,307.831 51.530,306.146 56.583 C 305.504 58.508,304.913 60.233,304.833 60.417 C 304.752 60.600,304.310 61.875,303.849 63.250 C 303.388 64.625,302.137 68.300,301.069 71.417 C 300.001 74.533,299.117 77.233,299.105 77.417 C 299.084 77.739,299.201 77.752,302.519 77.795 C 306.515 77.847,306.075 78.070,306.886 75.583 C 307.215 74.575,307.742 73.000,308.056 72.083 L 308.628 70.417 314.418 70.417 L 320.208 70.417 320.955 72.500 C 321.366 73.646,321.932 75.221,322.213 76.000 C 322.494 76.779,322.795 77.510,322.882 77.625 C 323.065 77.865,330.251 77.934,330.398 77.697 C 330.444 77.622,330.069 76.403,329.564 74.989 C 326.720 67.016,326.596 66.669,323.434 57.750 C 321.245 51.575,320.427 49.274,319.716 47.292 L 318.954 45.167 314.491 45.167 L 310.028 45.167 309.767 45.875 M334.245 45.372 C 334.200 45.488,334.183 52.821,334.207 61.667 L 334.250 77.750 345.463 77.793 C 354.347 77.827,356.692 77.792,356.752 77.626 C 356.834 77.397,357.334 73.730,357.456 72.458 L 357.532 71.667 349.517 71.667 L 341.502 71.667 341.459 58.458 L 341.417 45.250 337.871 45.205 C 335.125 45.170,334.307 45.208,334.245 45.372 M361.410 45.375 C 361.366 45.490,361.350 52.821,361.374 61.667 L 361.417 77.750 368.750 77.746 C 377.349 77.742,378.133 77.647,381.309 76.222 C 386.943 73.695,390.357 67.239,389.930 59.920 C 389.445 51.616,384.357 46.165,376.320 45.340 C 373.786 45.080,361.512 45.109,361.410 45.375 M316.612 58.348 C 317.650 61.519,318.500 64.163,318.500 64.223 C 318.500 64.284,316.662 64.333,314.417 64.333 C 310.932 64.333,310.333 64.297,310.333 64.088 C 310.333 63.953,310.590 63.072,310.904 62.130 C 311.473 60.425,312.468 57.215,313.168 54.833 C 313.369 54.146,313.633 53.281,313.753 52.912 C 313.873 52.542,314.029 51.942,314.099 51.578 L 314.226 50.917 314.475 51.750 C 314.612 52.208,315.573 55.178,316.612 58.348 M286.711 51.500 C 290.013 52.735,290.007 57.518,286.702 58.662 C 286.299 58.801,284.733 58.904,282.208 58.956 L 278.333 59.035 278.333 55.101 L 278.333 51.167 282.077 51.167 C 285.411 51.167,285.918 51.203,286.711 51.500 M376.187 51.494 C 380.755 52.690,383.068 57.112,382.336 63.250 C 381.801 67.729,379.773 70.482,376.250 71.506 C 375.883 71.613,374.027 71.740,372.125 71.788 L 368.667 71.875 368.667 61.521 L 368.667 51.167 371.802 51.167 C 374.383 51.167,375.158 51.225,376.187 51.494 " stroke="none" fill="#f3843c" fill-rule="evenodd"></path><path id="path2" d="" stroke="none" fill="#fcc49c" fill-rule="evenodd"></path><path id="path3" d="M90.667 15.885 C 90.667 15.914,90.910 16.158,91.208 16.427 L 91.750 16.917 91.260 16.375 C 90.804 15.870,90.667 15.757,90.667 15.885 M104.709 51.250 C 104.711 51.617,104.745 51.747,104.785 51.540 C 104.824 51.332,104.823 51.032,104.781 50.873 C 104.739 50.714,104.707 50.883,104.709 51.250 M36.542 58.750 C 36.544 59.117,36.578 59.247,36.618 59.040 C 36.658 58.832,36.656 58.532,36.615 58.373 C 36.573 58.214,36.540 58.383,36.542 58.750 M104.705 59.167 C 104.705 59.487,104.740 59.619,104.782 59.458 C 104.823 59.298,104.823 59.035,104.782 58.875 C 104.740 58.715,104.705 58.846,104.705 59.167 M36.539 63.167 C 36.539 63.487,36.573 63.619,36.615 63.458 C 36.657 63.298,36.657 63.035,36.615 62.875 C 36.573 62.715,36.539 62.846,36.539 63.167 M49.993 93.208 C 50.684 93.944,50.833 94.077,50.833 93.951 C 50.833 93.925,50.477 93.568,50.042 93.160 L 49.250 92.417 49.993 93.208 " stroke="none" fill="#f4b484" fill-rule="evenodd"></path><path id="path4" d="M104.712 52.833 C 104.712 53.246,104.745 53.415,104.784 53.208 C 104.824 53.002,104.824 52.665,104.784 52.458 C 104.745 52.252,104.712 52.421,104.712 52.833 M104.712 57.500 C 104.712 57.913,104.745 58.081,104.784 57.875 C 104.824 57.669,104.824 57.331,104.784 57.125 C 104.745 56.919,104.712 57.087,104.712 57.500 M36.550 61.000 C 36.550 61.504,36.581 61.710,36.619 61.458 C 36.658 61.206,36.658 60.794,36.619 60.542 C 36.581 60.290,36.550 60.496,36.550 61.000 " stroke="none" fill="#fcccac" fill-rule="evenodd"></path></g></svg>